            <svg
              xmlns="http://www.w3.org/2000/svg"
              width="107.484"
              height="107.484"
              viewBox="0 0 107.484 107.484"
            >
              <g id="Group_152" data-name="Group 152" transform="translate(-312.606 -2425.181)">
                <circle
                  id="Ellipse_47"
                  data-name="Ellipse 47"
                  cx="53.742"
                  cy="53.742"
                  r="53.742"
                  transform="translate(312.606 2425.181)"
                  fill="#f2f2f2"
                ></circle>
                <g id="Group_151" data-name="Group 151">
                  <path
                    id="Path_135"
                    data-name="Path 135"
                    d="M351.29,2465.618a2.961,2.961,0,1,0,2.961,2.961A2.959,2.959,0,0,0,351.29,2465.618Z"
                    fill="#ed9e21"
                  ></path>
                  <path
                    id="Path_136"
                    data-name="Path 136"
                    d="M373,2470.489a5.781,5.781,0,0,0,2.281.445c2.182,0,3.949-1.065,3.949-2.382s-1.767-2.382-3.949-2.382a5.849,5.849,0,0,0-2.208.408,1.432,1.432,0,0,0-.994-.408h-.576a1.41,1.41,0,0,0-1.394,1.263c-1.771.185-3.078.824-3.078,1.59,0,.912,1.84,1.648,4.125,1.648A9.547,9.547,0,0,0,373,2470.489Z"
                    fill="#ed9e21"
                  ></path>
                  <path
                    id="Path_137"
                    data-name="Path 137"
                    d="M385.028,2476.522v-16.168a.879.879,0,0,0-.881-.878h-41.86a.886.886,0,0,0-.892.878v36.23a.888.888,0,0,0,.892.883h27.8a12.913,12.913,0,1,0,14.937-20.945Zm-23.865-2.981c-4.782-4.775-9.406,13.7-9.406,13.7h-6.321v-23.759h36.289v11.67a12.833,12.833,0,0,0-15.268,7.766C365.453,2479.968,363.764,2476.149,361.163,2473.541Zm17.308,24.159a10.057,10.057,0,1,1,10.06-10.059A10.058,10.058,0,0,1,378.471,2497.7Z"
                    fill="#ed9e21"
                  ></path>
                  <path
                    id="Path_138"
                    data-name="Path 138"
                    d="M380.225,2480.607h-4.294v4.9h-5v4.294h5v5.039h4.294V2489.8h4.94V2485.5h-4.94Z"
                    fill="#ed9e21"
                  ></path>
                </g>
              </g>
            </svg>